# xmcd
#
# Track frame offsets:
#	150
#	17612
#	34538
#	48860
#	65711
#	91790
#
# Disc length: 1468 seconds
#
# Revision: 1
# Processed by: cddbd v1.5.2PL0 Copyright (c) Steve Scherf et al.
# Submitted via: audiograbber 1.83.01
#
DISCID=3e05ba06
DTITLE=CHVRCHES - EP
DYEAR=2013
DGENRE=Electronic
TTITLE0=Gun
TTITLE1=Recover
TTITLE2=Z V V L
TTITLE3=Now Is Not The Time
TTITLE4=Recover (Cid Rim Remix)
TTITLE5=Gun (Jamie Isaac Remix)
EXTD=
EXTT0=
EXTT1=
EXTT2=
EXTT3=
EXTT4=
EXTT5=
PLAYORDER=
